<svg xmlns="http://www.w3.org/2000/svg" width="500" height="500" viewBox="0 0 375 375" xmlns:v="https://vecta.io/nano"><style><![CDATA[.B{fill:rgb(0%,0%,0%)}.C{fill:rgb(100%,100%,100%)}.D{fill-rule:evenodd}.E{fill:rgb(82.749939%,82.749939%,82.749939%)}.F{fill:rgb(100%,50.979614%,43.139648%)}.G{fill:rgb(90.19928%,91.369629%,92.939758%)}]]></style><defs><clipPath id="A"><path d="M262 75.648h36.949V134H262zm0 0"/></clipPath><clipPath id="B"><path d="M75.648 75.648h223.301v223.301H75.648zm0 0"/></clipPath><clipPath id="C"><path d="M75.648 144H155v65H75.648zm0 0"/></clipPath><clipPath id="D"><path d="M323 156.164h5V166h-5zm0 0"/></clipPath><clipPath id="E"><path d="M294.223 185H304v5h-9.777zm0 0"/></clipPath><clipPath id="F"><path d="M320 226h10v2.914h-10zm0 0"/></clipPath><clipPath id="G"><path d="M347 185.156h9.473v4.258H347zm0 0"/></clipPath><clipPath id="H"><path d="M35 114.961h5V125h-5zm0 0"/></clipPath><clipPath id="I"><path d="M6.535 144H17v5H6.535zm0 0"/></clipPath><clipPath id="J"><path d="M33 185h10v2.711H33zm0 0"/></clipPath><clipPath id="K"><path d="M59.484 144.035h9.301v4.273h-9.301zm0 0"/></clipPath></defs><path d="M75.684 201.758c-28.207-3.426-52.035-29.137-53.348-57.559s20.043-56.23 47.813-62.246c9.098-1.969 18.527-1.828 27.68-3.496 19.734-3.59 36.902-15.27 55.355-23.141 18.457-7.863 41.234-11.453 57.5.297 13.852 10 19.164 28.363 31.75 39.914 16.438 15.086 41.793 15.715 60.086 28.484 23.172 16.164 29.082 52.348 12.262 75.066-6.82 9.211-16.484 16.027-23.266 25.27-11.352 15.461-13.352 35.664-15.23 54.758-1.871 19.105-4.504 39.367-16.707 54.164-12.203 14.805-37.461 20.336-50.262 6.047-4.633-5.16-6.914-11.945-10.086-18.113-10.941-21.309-34.148-35.723-58.078-36.062-13.465-.199-26.953 3.707-40.277 1.711s-27.02-13.422-24.363-26.648c1.402-6.973 6.879-12.305 10.082-18.652s7.445-37.547-10.91-39.793" class="B D"/><g class="E"><path d="M254.473 145.852c.191.031.434-.219.648-.34l-.637-.727-.504.531.008.004c.152.188.293.5.484.531M117.25 183.508c.035.137.387.199.59.289l.223-.691-.629-.316c-.07.242-.234.504-.184.719"/><path d="M142.879 175.027l.023-.312c.051.016.102.043.152.063l.52-1.148c.016-.043-.262-.262-.27-.254-.367.336-.758.664-1.043 1.059-.07.094.215.445.336.676.082-.031.199-.051.281-.082m120.282-12.787c.043-.035-.02-.305-.051-.305-.219-.02-.473-.07-.637.027-.191.105-.32.324-.473.504.203.074.402.176.594.152.203-.02.398-.223.566-.379m-92.077 29.044c.125-.047.316-.059.363-.148.227-.426.426-.875.605-1.324.016-.055-.258-.27-.27-.262-.363.336-.758.66-1.043 1.063-.066.09.215.441.344.672m48.228 46.062c.109-.152.09-.555-.039-.695-.535-.594-1.242-.555-1.77.051-.09.102-.129.242-.191.363.074.117.125.25.223.34.598.574 1.324.574 1.777-.059m41.921 91.656c-.422.113-.918.535-1.059.93-.16.449.547.965 1.172.977l1.402-1.988c-.523-.012-1.039-.047-1.516.082M110.574 204.824l-.051-2.73-.676-.105c-.324.555-.738 1.078-.941 1.676-.359 1.035.004 1.277 1.668 1.16m109.008 112.183c-.191.574.141 1.039.746 1.082.285.02.598-.293 1.152-.594-.461-.465-.738-.871-1.129-1.09-.121-.062-.68.324-.77.602m-27.292-121.699c-.055.855-1.484 1.066-.738 2.27.293-.023.555-.012.805-.07a2.47 2.47 0 0 0 .73-.293c.969-.598.859-.937-.797-1.906"/><path d="M88.047 274.66s.012-.02.012-.012h-.004l-.008.012m208.832-145.058c.176-.035.305-.348.457-.539-.266-.195-.508-.445-.809-.559-.082-.035-.312.332-.961 1.031.57.047.953.129 1.313.066M79.953 274.133l-.25-.066.313.434c.043-.105-.031-.246-.062-.367m45.097-25.376l-1.555-1.027c.727-1.652 1.789-2.711 1.238-4.344l-2.918-.273-.84 3.73-.109-.113 1.438 1.934c.281.457.273 1.141.617 1.484.434.43 1.086.715 1.691.855.043.012.102.012.156.008l-.266-.098c.039-.074.07-.16.109-.242l.172.332c.297-.043.691-.301.84-.543.418-.707.063-1.281-.574-1.703m69.22 2.144c.102.383.688.637 1.059.957l1.637-1.965c-.699-.371-1.129-.785-1.555-.785-.746 0-1.355.938-1.141 1.793m-48.875-118.718c-.547.637-.098 1.219.242 1.773.133.23.344.406.68.777.309-.383.414-.473.461-.586.316-.848.242-1.602-.637-2.055l-.621.254a1.81 1.81 0 0 1-.125-.164m-32.446 19.04c-.406-.363-.629-.645-.918-.777-.113-.059-.547.223-.535.293.066.336.238.656.371.98l1.082-.496m55.699 107.593c.172.117.332.25.523.34.035.02.156-.152.238-.23l-.531-.41-.23.301"/><path d="M272.539 111.867c-.164-.152-.367-.453-.48-.422-.27.078-.484.313-.727.48l.621.332.586-.391M145.496 279.055c.133.168.352.512.402.484.305-.141.566-.363.891-.594-.254-.207-.473-.477-.555-.437-.281.121-.496.355-.738.547m-9.387-147.657c.086.223.223.426.344.637l.559-.535c-.203-.113-.387-.254-.605-.324-.07-.02-.312.191-.297.223m9.285.785a1.81 1.81 0 0 0 .125.164l.621-.254c-.078-.09-.172-.262-.23-.254-.211.043-.406.145-.613.227l.098.117m98.733 41.261c.203.406.617.715.953 1.059l.895-.984c-.48-.355-.824-.695-1.238-.855-.102-.035-.68.645-.609.781m-85.767-17.161c.309-.348.75-.637.73-.891-.02-.273-.426-.633-.746-.746-.52-.18-1.105.414-.871.867.152.293.523.473.887.77m11.125-34.137c.301-.062.555-.305 1.063-.617-.539-.293-.891-.637-1.105-.566-.25.082-.395.523-.516.836-.02.051.395.383.559.348m-10.438-51.442c-.121-.195-.219-.527-.371-.559-.203-.031-.457.16-.695.246l.531.785.535-.473M59.035 89.977c.281.027.504.191.316.605.105-.074.301-.191.289-.223-.082-.211-.219-.406-.332-.605-.09.078-.25.172-.273.223m135.09-31.067c-3.383-.965-3.555-.895-3.441 1.422 1.32 0 2.543-.078 3.441-1.422m-50.82 35.922c.129.383.707.828 1.109.84.313.016.922-.625.891-.922-.039-.379-.586-.711-1.109-1.277l-.172.242c-.387.492-.793.887-.719 1.117m20.254 191.617c-.305-.59-.422-.937-.656-1.176-.109-.102-.645.008-.656.082-.062.32-.125.781.047.965.164.18.629.082 1.266.129M40.328 141.324c.09.297.543.66.855.676.277.012.578-.41.871-.633l-1.074-1.211c-.332.563-.723.938-.652 1.168m223.219 124.145c-.172-.125-.629-.094-.867.016l-.031 1.16c.695.727 1.492 1.363 2.25 2.035.234-1.562-.406-2.5-1.352-3.211m47.433-100.707c.426-.086.813-.387 1.48-.75-.602-.414-.914-.797-1.172-.766-.031.102-.023.254-.094.297s-.211-.004-.312-.012c.012-.043.027-.082.043-.125-.207.137-.398.336-.449.527-.066.223.383.855.504.828m-76.636-72.597c.059-.105-.207-.547-.328-.555-.293 0-.602.16-.898.258l.398 1.18c.379-.391.672-.594.828-.883"/><path d="M175.602 272.121c.293-.012.574-.184.859-.297l-.359-.852c-.281.199-.59.367-.812.609-.051.051.211.547.313.539m5.342-132.022c.223.047.445.059.664.082l.063-.367-.707-.039-.02.324M52.246 116.293l.109-.086-.613-.379c-.023-.012-.223.219-.195.27.074.184.223.336.344.504l.156-.137.199-.172m72.258 134.621l.266.098c-.043-.117-.102-.23-.156-.34l-.109.242m122.233 10.117l-.293-.117c-.086.059-.184.109-.277.168l.164.242.406-.293M144.195 93.473l-.121-.273-.051.496c.059-.055.117-.141.172-.223m84.782 36.695c-.168.266-.102.676-.133 1.027l.465.297c.184-.344.438-.668.539-1.039.09-.297 0-.648-.012-.98-.293.23-.68.395-.859.695m-72.832 103.187c-.402-.27-.66-.496-.969-.605-.074-.027-.457.434-.414.555.137.332.422.598.645.891l.738-.84m113.05-104.969l-.934-.668c-.012-.008-.242.234-.219.281a4.51 4.51 0 0 0 .566.785c.027.016.328-.219.586-.398m-80.339 25.125c.207-.09.379-.254.563-.391l-.516-.406c-.129.191-.254.383-.352.586-.008.027.242.238.305.211m27.184 121.683c0-.02-.273-.043-.418-.062 0 .555-.734 1.078.094 1.875.41-.613.305-1.23.324-1.812m-9.344-5.387l-.242-.242-.328.363.316.105.254-.227m-25.066-162.117c.883.043 2.336-1.406 2.656-2.707.035-.156-.25-.469-.453-.586-.102-.051-.445.152-.527.32-.121.23-.086.535-.156.805-.223.832-.914 1.059-1.598.867-.434-.117-.871-.582-1.09-1.004-.234-.445-.195-1.031-.418-2.418-.738 1.059-1.133 1.371-1.117 1.652.098 1.754 1.25 3.004 2.703 3.07m-81.168 133.873c.254.391.738.621 1.133.914l.707-1.227c-.523-.262-.918-.559-1.344-.605-.148-.012-.594.773-.496.918M69.512 94.914c-.68-.363-1.898.703-1.852 1.539.195.172.477.527.566.488.578-.277 1.172-.59 1.637-1.02.113-.102-.109-.879-.352-1.008m16.364 36.095c-.16.137-.305.574-.223.684.355.445.801.828 1.414 1.43.254-.723.527-1.105.457-1.402-.16-.652-1.203-1.074-1.648-.711m142.523 21.245l-.25-.242c-.121.277-.219.492-.375.645.176.039.414-.254.625-.402"/><path d="M227.672 151.539c-.016.016-.027.035-.039.047a.38.38 0 0 0 .094.008c-.02-.016-.035-.035-.055-.055M59.035 89.977a.9.9 0 0 0-.32.027c-.305.074-.539.395-.82.613.27.313.527.68.578.656.328-.18.742-.383.879-.691.188-.414-.035-.578-.316-.605"/><path d="M227.773 152.656c.156-.152.254-.367.375-.645l.18-.383-.602-.035c-.031 0-.062 0-.094-.008l-.523-.031c-.004.336-.059.688.027 1 .02.098.539.199.637.102M52.5 116.18c-.082 0-.164.051-.254.113l-.199.172-.156.137c.172.172.355.484.516.473.223-.016.43-.277.648-.43-.184-.164-.363-.465-.555-.465m243.422 62.55c.301-.012.574-.402.98-.715-.383-.324-.629-.711-.922-.746-.566-.062-1.031.309-.91.914.043.25.566.566.852.547m-7.922 21c-.16-.309-.293-.625-.496-.895-.02-.031-.562.191-.562.285 0 .328.148.652.25.996l.809-.387m-9.118 28.556c.695.012 1.492-.715 1.277-1.281-.211-.539-.766-.934-1.398-1.652-.586.77-1.223 1.234-1.266 1.754-.059.734.605 1.168 1.387 1.18m-168.145 21.882c-.637-.059-1.277.723-1.094 1.25.121.352.395.645.828 1.32.555-.969.898-1.422 1.051-1.937.043-.129-.492-.605-.785-.633m190.414-42.531l-.324-.68c-.137.164-.293.293-.371.465-.039.074.07.332.102.332.199-.016.395-.07.594-.117m-47.173-62.321h0m57.215 18.227c.07-.043.063-.195.094-.297l-.242-.172-.121.332-.043.125c.102.008.242.059.313.012M158.547 268.984c.332.789 1.02.809 1.738.547.129-.043.25-.113.543-.246l-1.453-1.801c-.84.188-1.152.727-.828 1.5m98.16-55.402c.078-.09.063-.242.09-.363l-.477.051.063.352c.113-.012.273.02.324-.039m-22.445 6.601c.16.414.582.727 1.102 1.34.41-.715.777-1.109.859-1.562l-.363-.18.086-.574c-.262-.234-.656-.352-1.031-.234-.605.191-.867.664-.652 1.211m-147.63-34.724c-.133-.008-.273.23-.426.371.254.094.465.191.688.234.051.008.211-.254.195-.27-.141-.137-.297-.336-.457-.336m10.625-27.726c-.156.18-.008.703.121 1.016.043.102.578.156.699.043.453-.434.84-.937 1.203-1.453.039-.059-.262-.352-.566-.742-.492.371-1.059.684-1.457 1.137m5.066-56.731c-.344.156-.641.41-.953.625.242.25.488.703.727.691.273-.012.527-.43.789-.664-.25-.293-.496-.684-.562-.652m155.222 134.582c-.031-.043-.172-.012-.262-.016l-.125.348.488.02c-.031-.121-.035-.254-.102-.352"/><path d="M236.918 203.352l-.609-.824-.656.801.629.375.637-.352m-17.974 50.14c-.027.191.566.676.676.617.383-.195.676-.566 1.004-.871l-1-.602c-.277.324-.648.574-.68.855M68.352 152.043c.191.141.395.402.574.383.211-.023.402-.277.598-.437l-.863-.574-.309.629m-11.329 42.741c.254.219.488.492.781.621.098.035.359-.312.543-.488l-.805-.738-.52.605m179.201 25.176c.035-.242.098-.484.086-.727 0-.078-.219-.141-.332-.211l-.031.184-.086.574.363.18M40.34 177.48c-.012.082.09.188.141.281l.352-.301-.25-.172c-.082.066-.227.117-.242.191m-13.724-22.237c-.191.258-.25.961-.102 1.051.465.293 1.043.391 1.793.637-.004-.727.117-1.152-.035-1.441-.293-.605-1.281-.75-1.656-.246m165.5 131.991a.45.45 0 0 0 .129.324c.223.031.453-.008.68-.012l-.297-.652c-.172.109-.363.199-.512.34m51.164-135.605c.414.141.93.059 1.383-.035.121-.035.285-.574.195-.691l-.266-.301-.168.016a2.34 2.34 0 0 0-.082-.25c-.172-.148-.355-.27-.559-.332-.293-.094-.715.191-1.434.422.457.605.629 1.07.93 1.172m-140.436 3.073l.398-.223-.348-.113c-.02.113-.066.285-.051.336m137.661-20.945c-.074-.211-.102-.484-.246-.605-.117-.09-.391.012-.594.031.074.211.102.492.246.621.109.086.391-.02.594-.047m22.184 159.961c.34-.797.344-1.742.516-2.723-1.387.121-2.387.453-2.656 1.664-.094.426.129 1.109.445 1.391.582.512 1.414.324 1.695-.332m29.929-92.371c.727.41 1.504.715 2.445-.156-.445-.488-.82-1.066-1.352-1.41-.355-.238-1.004-.332-1.395-.172-.516.215-.312 1.391.301 1.738m18.923-2.278c.184-.316.223-.719.422-1.422-.969.223-1.492.238-1.875.473-.191.121-.266.742-.133.984.344.625 1.23.586 1.586-.035M47.188 162.504c-.426.625-.383 1.266.332 1.773.324-.203.695-.383 1-.625.527-.414.535-.91.051-1.34-.496-.434-1.039-.305-1.383.191m228.703-.12c.051-.656.168-1.133.07-1.566-.031-.137-.695-.293-.957-.18-.559.242-.687.797-.316 1.273.18.23.617.258 1.203.473M74.563 178.215c-.062.203-.23.477-.16.613.102.172.391.246.602.367.07-.223.258-.508.191-.656-.09-.172-.41-.223-.633-.324m96.562-38.793l-2.887.516c-.84.059-1.691-.102-3.133-.203l3.078 3.66c1.453-.77 2.383-2.051 2.941-3.973m43.528 37.887c-.172.254-.109 1.008.012 1.055.555.184 1.16.195 2.039.305-.172-.687-.16-1.129-.363-1.32-.508-.473-1.172-.816-1.687-.039m60.593 37.721c.008.082.613.234.656.164.168-.246.211-.574.293-.848l-.832-.395c-.051.363-.148.727-.117 1.078"/><path d="M233.531 283.973c-.109.23-.363.566-.293.664.184.242.508.391.809.594.145-.359.375-.723.313-.793-.219-.211-.543-.316-.828-.465m-64.477-108.289c-.082.18-.109.387-.152.586l.668.027c-.055-.207-.094-.422-.191-.602-.023-.051-.305-.051-.324-.012m-49.908-4.273c-.078.293-.109.605-.156.91l.746.059-.254-1.02c-.008-.02-.324.004-.336.051m56.672-14.047c-.027-.055-.344-.051-.363-.004-.09.195-.109.418-.16.637l.77.078c-.086-.281-.133-.52-.246-.711m68.109 32.672c.008.063.152.105.242.164.008-.012.016-.023.02-.039l-.121-.402c-.051.098-.145.191-.141.277m9.668 76.75l-.242.063.137.16zm0 0"/><path d="M244.676 190.461l.281.203-.047-.324zM228.574 89.715c.422.281 1.223.172 1.77-.02.191-.062.32-1.121.105-1.324-.391-.363-1.059-.422-2.02-.746.043 1-.141 1.898.145 2.09M89.594 218.652c-.164.102-.336.18-.496.27l.094.855c.242-.086.484-.168.703-.301.039-.031-.152-.434-.301-.824M200.035 99.359c.215.098.496.051.746.066l.313-.211c-.219-.258-.398-.645-.672-.734-.203-.078-.535.23-.809.371.137.176.242.418.422.508m-23.523 161.157c1.855-.875 2.449-1.148 3.398-1.023l.055-.184c.238-.637.605-1.23 1.039-1.805-.605-.168-1.266-.309-1.969-.223-1.695.211-.645-2.687-2.777-1.906.828 2.625.828 2.625.254 5.141m21.836-35.668c.73.414 1.504.719 2.453-.16-.449-.48-.824-1.059-1.352-1.402-.363-.238-1.008-.332-1.395-.172-.523.207-.32 1.391.293 1.734m-37.999 39.66c.117-.027.137-.398.199-.605l-1-.172-.102.77c.305.012.625.082.902.008m-51.925-37.228c-.133-.086-.445.105-.676.168.113.293.211.605.375.867.027.039.402-.152.773-.293-.16-.281-.258-.602-.473-.742"/><path d="M117.938 158.246c-.133.176-.223.398-.324.598l.559.027.109-.59c-.121-.012-.305-.082-.344-.035m9.554 21.238l-.621 1.078c.543.031.895.109 1.211.039.117-.031.273-.523.199-.613-.199-.23-.523-.344-.789-.504m122.617-71.578c-.113.012-.301-.012-.332.051-.09.168-.121.379-.172.563l.586.039-.082-.652m-19.355-19.958c-.031-.062-.184-.062-.289-.09l-.016.512.273-.102c.02-.109.07-.238.031-.32"/><path d="M130.434 146.781c-.141.18-.219.398-.324.594l.559.027.109-.586c-.121-.016-.312-.086-.344-.035m113.636 42.977c.051.129.078.277.121.402.031.09.07.168.129.219.105.094.387-.02.59-.039-.074-.211-.102-.484-.246-.605-.117-.098-.391.012-.594.023"/><path d="M111.535 258.957c2.129-1.027 1.969-2.418 2.109-3.84l-1.504-.141-.605 3.98m192.086-129.101c-.414.371-1.285.164-1.328 1.313.723-.094 1.121-.586 1.559-.957.012-.012-.145-.234-.23-.355M214.25 250.75c-.082-.238-.109-.605-.254-.664-.184-.062-.473.121-.715.195l.262.73.707-.262m-44.641-22.163c.148.113.625.086.648.012.121-.309.121-.664.207-1.32-.555.316-.887.434-1.09.664-.078.09.074.516.234.645m63.935-2.153l-.336-.16c-.047.086-.148.18-.137.25.031.121.129.223.199.332l.273-.422m1.708 22.515l.383.301.172-.324c-.082-.066-.18-.187-.25-.172-.113.02-.203.125-.305.195m-41.809 26.254l-.324.129.313.363c.059-.098.141-.191.164-.301.008-.051-.102-.129-.152-.191m-47.661-16.336c-.035.066.102.23.27.574.383 0 .918.102 1.348-.055.23-.086.281-.633.422-.973-.465-.141-.937-.387-1.395-.363-.234.016-.453.52-.645.816m59.852-142.143c.102-.43.16-.887.113-1.328-.004-.07-.617-.074-1.293-.145.211.66.301 1.102.504 1.477.059.098.656.059.676-.004m80.226 117.125l.766-1.562-.828-.785.063 2.348M43.145 103.035c-.098-.039-.434.281-.504.488-.129.367-.195.781-.164 1.164.02.195.266.469.469.527.211.063.492-.074.969-.18.047-.418.211-.93.109-1.375-.07-.273-.547-.492-.879-.625m-.911 11.939l.074.73.949-.18c-.094-.23-.133-.566-.305-.664-.164-.094-.473.063-.719.113m172.47-24.199c.078.027.191-.074.285-.121l-.035-.305-.453.172c.063.09.113.23.203.254m49.149 138.563c.199-.445.371-.906.512-1.363.031-.102-.098-.25-.152-.371-.25.078-.703.121-.715.238-.082.484-.031.992-.012 1.492 0 .012.352.051.367.004m-120.973-54.309l-.031.277c.184-.004.375.016.547-.031.051-.012.102-.285.07-.305a2.06 2.06 0 0 0-.41-.191l-.152-.062-.023.313m76.28 48.421c-.105-.223-.164-.535-.344-.633-.133-.066-.418.129-.637.207l.008.676.973-.25m-14.597 84.117l.012-.562c-.207.09-.43.16-.617.289-.051.031.008.23.016.352l.59-.078m15.737-2.169c-.109.039-.266.039-.312.109-.051.082-.004.227-.004.348l.336-.121-.02-.336m3.625 30.582c1.516-.738 1.719-1.949 1.527-3.32-.75.645-1.367 1.477-2.676.898-.77-.34-1.125.473-1.309 1.371l2.457 1.051m-80.761-131.187c.109-.012.25-.707.16-1.027-.211-.719-1.094-1.109-1.535-.676-.305.305-.363.863-.668 1.652.91.043 1.484.133 2.043.051m129.359 45.02c.285.125.637.125.961.172.031-.238.16-.551.055-.695-.203-.301-.539-.512-.973-.895-.039.957-.129 1.379-.043 1.418M179.328 68.156c0-.055-.941-.266-.988-.184-.258.543-.418 1.141-.527 1.742-.008.043.637.203 1.234.395l.281-1.953m-26.609 33.801c.543-.484 1.012-1.047 1.605-1.691-1.687-.32-2.406.051-2.371 1.109.008.211.715.625.766.582m-92.614 20.117c-.164.281-.133.68-.184 1.027l1.629.035c-.062-.617.043-1.133-.16-1.355-.477-.52-.992-.211-1.285.293"/><path d="M86.582 121.715c-.18.09-.27.797-.113 1.008.156.219.801.379 1 .238.945-.664 1.813-1.449 2.711-2.187l-.402-.41-3.195 1.352m39.308-8.177c-1.344-.703-2.707-.613-4.922.254l4.395 1.336c.281.063.848-.289.941-.57.098-.273-.145-.879-.414-1.02m13.433-38.351c.082.184.395.254.605.375l.305-.949-.676-.051c-.086.211-.305.484-.234.625m53.832 79.515c-.578.57-.695 1.27.07 1.621.902.43 1.949.566 2.938.836l.293-.746-2.535-1.754c-.172-.109-.5.023-.766.043"/><path d="M129.395 93.676c-.367-.211-.871-.172-1.555-.273.141.656.148 1.246.301 1.281.426.117.918.008 1.383-.012-.039-.352.043-.906-.129-.996M100.484 282.52l.051.625c.199-.059.402-.098.586-.184.039-.02.02-.312-.031-.332-.191-.07-.402-.078-.605-.109m97.046-91.961c.02-.121.102-.309.059-.34-.172-.129-.375-.215-.566-.32.051.219.09.434.176.633.02.051.219.02.332.027m39.363-18.282c.102-.082.043-.359.063-.555-.242.09-.473.152-.668.262-.047.023.004.336.023.336.199.016.453.059.582-.043m-67.75 5.442c.184-.32.23-.723.426-1.422-.969.223-1.488.234-1.871.477-.191.113-.273.734-.141.98.352.625 1.23.59 1.586-.035m21.585-67.559c.113.023.355-.047.363-.098l.203-2.336c0-.102-.422-.234-.656-.305-.09-.02-.223.109-.305.152l.094 2.336c.008.09.18.215.301.25"/></g><path d="M86.855 195.355c-28.207-3.426-52.035-29.137-53.348-57.559s20.047-56.23 47.816-62.242c9.094-1.973 18.527-1.832 27.68-3.496 19.73-3.594 36.902-15.27 55.352-23.141 18.461-7.867 41.234-11.457 57.5.293 13.855 10 19.168 28.363 31.75 39.914 16.441 15.086 41.797 15.719 60.09 28.484 23.168 16.164 29.078 52.348 12.258 75.066-6.82 9.211-16.48 16.031-23.266 25.273-11.348 15.461-13.348 35.66-15.227 54.758s-4.504 39.367-16.707 54.164c-12.203 14.805-37.465 20.332-50.266 6.047-4.629-5.16-6.91-11.949-10.082-18.117-10.941-21.309-34.152-35.723-58.082-36.062-13.465-.195-26.953 3.707-40.277 1.711-13.316-1.996-27.02-13.422-24.363-26.648 1.402-6.973 6.879-12.305 10.082-18.652s7.449-37.547-10.91-39.793" fill="rgb(7.449341%,28.239441%,7.058716%)" class="D"/><g class="E"><path d="M265.645 139.449c.191.031.434-.215.648-.336l-.637-.727-.5.527.004.008c.152.184.293.496.484.527m-137.222 37.661c.039.133.391.195.594.285l.223-.687-.633-.32c-.07.242-.234.504-.184.723"/><path d="M154.051 168.625l.027-.312.152.063.516-1.148c.02-.043-.262-.262-.27-.254-.367.34-.758.664-1.043 1.059-.07.098.215.445.336.676.086-.031.199-.051.281-.082m120.282-12.783a.41.41 0 0 0-.051-.309c-.215-.02-.473-.07-.637.027-.191.109-.316.324-.473.504.207.074.402.18.594.152.203-.02.402-.223.566-.375m-92.077 29.04c.129-.043.32-.059.363-.145a12.7 12.7 0 0 0 .605-1.328c.02-.051-.254-.27-.27-.262-.363.336-.758.664-1.043 1.066-.062.086.215.438.344.668m48.227 46.063c.109-.152.09-.555-.039-.695-.535-.59-1.242-.555-1.77.055-.09.102-.129.242-.191.363.078.113.129.246.223.336.602.574 1.324.574 1.777-.059m41.922 91.657c-.422.117-.918.539-1.059.934-.156.445.551.961 1.172.977l1.402-1.992c-.523-.012-1.039-.043-1.516.082M121.746 198.426l-.051-2.73-.676-.109c-.324.555-.738 1.078-.941 1.676-.355 1.035.008 1.277 1.668 1.164m109.008 112.178c-.191.574.141 1.039.746 1.086.285.016.598-.297 1.152-.594-.457-.465-.738-.875-1.125-1.09-.121-.066-.684.324-.773.598m-27.289-121.699c-.059.855-1.484 1.066-.742 2.273.293-.027.555-.016.805-.07.254-.066.508-.152.73-.293.969-.602.863-.937-.793-1.91"/><path d="M99.219 268.262s.016-.02.016-.016h-.008l-.008.016m208.832-145.063c.18-.031.305-.344.457-.535-.266-.199-.508-.449-.809-.562-.082-.031-.312.332-.961 1.035.574.043.957.125 1.313.063M91.125 267.73l-.25-.062.313.434c.047-.109-.031-.25-.062-.371m45.097-25.372l-1.551-1.027c.723-1.652 1.789-2.711 1.234-4.344l-2.918-.273-.84 3.73-.109-.117 1.441 1.934c.277.461.273 1.141.617 1.488.434.426 1.082.711 1.688.852a.35.35 0 0 0 .16.008l-.27-.098c.039-.074.07-.156.109-.242l.172.332a1.37 1.37 0 0 0 .84-.539c.422-.711.063-1.285-.574-1.703m69.223 2.14c.102.383.688.641 1.055.957l1.637-1.965c-.699-.367-1.125-.785-1.551-.785-.746 0-1.359.938-1.141 1.793m-48.879-118.719c-.547.637-.094 1.219.242 1.773.133.23.344.41.684.777.305-.383.414-.473.457-.586.32-.848.242-1.602-.637-2.055l-.617.258c-.047-.051-.09-.109-.129-.168m-32.445 19.04c-.406-.363-.629-.645-.914-.777-.117-.059-.551.223-.535.293.063.34.234.656.367.984l1.082-.5m55.699 107.598c.172.113.332.246.523.336.039.02.16-.152.242-.23l-.535-.406-.23.301"/><path d="M283.715 105.469c-.168-.156-.371-.453-.484-.422-.27.074-.484.313-.727.477l.625.332.586-.387M156.668 272.656c.137.164.352.508.402.484.305-.141.566-.363.891-.594-.254-.211-.469-.48-.555-.441-.277.121-.496.359-.738.551m-9.387-147.66c.09.223.223.43.344.641l.563-.539c-.207-.113-.391-.254-.605-.324a.54.54 0 0 0-.301.223m9.284.784c.039.059.082.117.129.168l.617-.258c-.078-.09-.172-.262-.23-.254-.207.043-.406.148-.609.23.031.039.055.074.094.113m98.734 41.263c.203.41.617.715.957 1.059l.891-.98c-.477-.359-.82-.695-1.234-.855-.102-.039-.684.645-.613.777m-85.767-17.157c.313-.352.75-.641.73-.895-.016-.273-.426-.633-.742-.746-.523-.18-1.109.414-.875.867.152.293.523.473.887.773m11.125-34.136c.301-.066.555-.309 1.066-.621-.543-.293-.895-.637-1.109-.566-.25.082-.395.523-.516.836-.02.051.395.383.559.352m-10.437-51.442c-.121-.199-.215-.531-.371-.562-.203-.031-.457.16-.691.25l.527.785.535-.473M70.207 83.578c.281.023.504.191.32.605.102-.078.297-.191.285-.223-.082-.211-.215-.41-.332-.609-.086.078-.246.176-.273.227m135.09-31.07c-3.383-.961-3.555-.895-3.437 1.422 1.316 0 2.539-.074 3.438-1.422M154.477 88.43c.129.383.707.832 1.109.844.313.012.926-.625.891-.926-.035-.375-.586-.707-1.105-1.277l-.172.242c-.391.492-.797.887-.723 1.117m20.253 191.617c-.305-.586-.418-.937-.656-1.172-.105-.105-.641.004-.652.082-.066.316-.129.777.043.961.164.18.629.086 1.266.129M51.504 134.922c.086.301.539.664.852.676.281.012.578-.406.871-.633l-1.074-1.211c-.332.563-.719.938-.648 1.168M274.723 259.07c-.172-.129-.633-.098-.867.012l-.031 1.16c.691.727 1.488 1.367 2.246 2.035.238-1.562-.406-2.5-1.348-3.207m47.429-100.707c.426-.09.816-.391 1.484-.754-.605-.414-.918-.797-1.172-.766-.031.102-.027.254-.098.301s-.207-.008-.312-.012l.047-.129c-.211.141-.402.336-.453.527-.062.227.383.855.504.832M245.52 85.766c.055-.109-.211-.551-.332-.555-.293 0-.598.156-.898.254l.402 1.18c.375-.391.668-.594.828-.879m-58.743 179.957c.293-.016.57-.187.859-.301l-.363-.848c-.281.195-.586.363-.809.605-.051.051.211.547.313.543m5.344-132.023c.223.043.445.055.66.082l.066-.371-.707-.039-.02.328M63.418 109.895l.109-.09-.613-.375c-.023-.016-.223.215-.195.266.074.184.223.34.344.504l.16-.133a2.97 2.97 0 0 1 .195-.172m72.258 134.617l.27.098c.004 0 .012 0 .02.008l-.18-.348-.109.242m122.237 10.117l-.293-.113-.281.164.164.242.41-.293M155.371 87.07c-.047-.086-.082-.184-.121-.273l-.051.5c.055-.059.113-.141.172-.227m84.777 36.696c-.164.27-.102.676-.133 1.027l.465.301c.184-.344.441-.672.543-1.039.086-.301 0-.652-.016-.984-.293.23-.68.395-.859.695M167.32 226.953c-.402-.266-.664-.496-.969-.605-.078-.023-.461.434-.414.555.133.332.418.602.641.895l.742-.844m113.051-104.966l-.937-.672c-.012-.004-.242.238-.215.281.156.281.348.547.566.785.023.02.324-.219.586-.395m-80.34 25.122c.203-.086.375-.254.559-.387l-.516-.41-.352.586c-.004.027.242.238.309.211m27.184 121.688c0-.02-.273-.047-.422-.066 0 .555-.73 1.078.098 1.875.406-.609.305-1.23.324-1.809m-9.344-5.391l-.242-.242-.332.363.32.109.254-.23m-25.07-162.117c.887.043 2.34-1.402 2.656-2.703.039-.16-.25-.473-.453-.59-.102-.051-.445.156-.527.32-.121.23-.082.535-.152.805-.223.836-.918 1.059-1.598.867-.434-.113-.875-.582-1.09-1-.238-.449-.199-1.035-.422-2.418-.738 1.059-1.133 1.371-1.113 1.652.094 1.754 1.246 3.004 2.699 3.066m-81.168 133.876c.254.387.738.617 1.133.91l.707-1.223c-.52-.262-.914-.562-1.344-.605-.145-.016-.59.77-.496.918M80.684 88.512c-.68-.363-1.895.703-1.852 1.539.199.172.477.531.566.492.582-.281 1.172-.594 1.637-1.023.117-.102-.109-.879-.352-1.008m16.364 36.097c-.16.133-.305.574-.223.68.355.449.805.832 1.414 1.43.254-.719.527-1.102.461-1.402-.16-.652-1.207-1.07-1.652-.707m142.523 21.245l-.25-.242c-.121.273-.215.488-.375.645.18.035.414-.258.625-.402"/><path d="M238.844 145.141l-.039.043c.031.008.066.008.098.008-.02-.012-.039-.031-.059-.051M70.207 83.578a.87.87 0 0 0-.316.023c-.305.078-.543.395-.824.613.27.313.531.684.582.656.324-.18.738-.383.879-.687.184-.414-.039-.582-.32-.605"/><path d="M238.945 146.258c.16-.156.254-.371.375-.645l.18-.383-.598-.039c-.031 0-.066 0-.098-.008l-.52-.031c-.008.34-.059.688.023 1 .02.098.543.199.637.105m-175.272-36.48c-.082 0-.164.051-.254.117l-.195.172c-.059.043-.109.09-.16.133.172.172.355.484.516.473.223-.012.434-.273.648-.426-.184-.168-.363-.469-.555-.469m243.422 62.555c.301-.016.574-.402.98-.715-.379-.328-.629-.715-.922-.746-.566-.066-1.031.305-.91.91.043.25.566.57.852.551m-7.922 20.996c-.16-.305-.293-.625-.496-.895-.02-.031-.562.191-.562.289 0 .324.148.648.25.996l.809-.391m-9.114 28.556c.695.012 1.488-.715 1.273-1.281-.211-.535-.766-.93-1.395-1.652-.586.773-1.223 1.238-1.27 1.754-.055.734.605 1.168 1.391 1.18m-168.144 21.882c-.637-.055-1.281.723-1.098 1.25.121.352.395.645.828 1.32.555-.969.898-1.422 1.051-1.937.047-.129-.488-.605-.781-.633m190.41-42.528l-.324-.684c-.133.164-.293.293-.371.465a.48.48 0 0 0 .102.332c.199-.012.395-.07.594-.113m-47.169-62.324h0m57.211 18.231c.07-.047.066-.199.098-.301l-.242-.172-.121.332c-.02.043-.031.082-.047.129.105.004.242.055.313.012M169.719 262.582c.332.793 1.02.813 1.738.551.129-.047.25-.117.543-.25l-1.453-1.797c-.84.184-1.152.727-.828 1.496m98.16-55.402c.078-.086.066-.242.09-.363l-.477.051.063.352c.117-.012.273.02.324-.039m-22.441 6.6c.156.418.578.73 1.102 1.34.406-.715.777-1.109.859-1.562l-.363-.176.082-.574c-.262-.238-.656-.352-1.031-.238-.605.191-.867.664-.648 1.211M97.805 179.059c-.133-.004-.273.23-.426.371.254.094.465.191.688.234.051.008.211-.254.199-.266-.141-.141-.301-.34-.461-.34m10.625-27.726c-.152.18-.008.703.121 1.016.043.102.578.16.699.043.453-.434.844-.937 1.203-1.453.039-.059-.258-.352-.566-.738-.488.367-1.055.68-1.457 1.133m5.07-56.728c-.344.152-.645.406-.957.625.242.25.492.699.727.688.273-.012.527-.426.789-.664-.246-.293-.496-.68-.559-.648m155.223 134.582c-.031-.047-.172-.012-.262-.02l-.129.352.492.02c-.031-.121-.039-.258-.102-.352"/><path d="M248.09 196.949l-.609-.82-.656.797.629.375.637-.352m-17.974 50.141c-.023.191.566.676.676.621.383-.199.676-.57 1.008-.875l-1-.602c-.281.328-.652.574-.684.855M79.527 145.645c.191.141.395.402.57.383.211-.027.402-.281.602-.441l-.867-.574-.305.633m-11.332 42.737c.254.219.492.492.785.621.094.039.355-.312.539-.484l-.801-.742-.523.605m179.203 25.176c.031-.242.094-.484.082-.727 0-.074-.215-.141-.332-.211l-.031.188-.082.574.363.176M51.516 171.082c-.012.082.09.184.141.277l.348-.297-.246-.172c-.082.063-.23.113-.242.191M37.789 148.84c-.191.262-.246.961-.102 1.051.465.293 1.043.391 1.797.641-.008-.73.113-1.156-.039-1.441-.293-.609-1.281-.754-1.656-.25m165.504 131.991c-.035.031.063.313.125.324.223.031.453-.004.684-.012l-.301-.652c-.172.109-.363.199-.508.34m51.16-135.602c.414.141.93.055 1.383-.039.121-.031.289-.574.199-.687l-.27-.301-.164.012-.082-.25a1.71 1.71 0 0 0-.562-.332c-.293-.094-.711.191-1.434.422.461.605.633 1.074.93 1.176m-140.437 3.074l.402-.223-.352-.117c-.02.117-.062.289-.051.34m137.661-20.95c-.074-.207-.102-.484-.246-.605-.113-.09-.391.016-.594.035.078.207.102.488.25.617.109.09.387-.02.59-.047m22.183 159.961c.34-.797.348-1.738.52-2.723-1.391.121-2.391.453-2.656 1.664-.098.43.125 1.113.445 1.391.578.512 1.414.328 1.691-.332m29.93-92.367c.727.406 1.504.715 2.445-.16-.445-.484-.82-1.066-1.348-1.41-.359-.234-1.008-.332-1.395-.172-.52.215-.312 1.391.297 1.742m18.923-2.277c.188-.32.223-.723.422-1.422-.969.223-1.492.234-1.871.469-.191.121-.27.742-.137.984.344.625 1.23.586 1.586-.031M58.363 156.105c-.43.625-.383 1.262.328 1.773.328-.207.695-.383 1-.625.531-.418.535-.914.051-1.34-.496-.434-1.035-.309-1.379.191m228.7-.12c.055-.66.168-1.137.07-1.57-.031-.133-.691-.293-.953-.18-.562.242-.687.797-.32 1.277.18.23.617.254 1.203.473M85.734 171.813c-.062.207-.227.48-.156.613.102.172.387.25.598.371.07-.223.262-.512.191-.656-.09-.172-.406-.227-.633-.328m96.563-38.793l-2.883.52c-.84.055-1.695-.102-3.133-.207l3.074 3.664c1.453-.773 2.383-2.055 2.941-3.977m43.528 37.89c-.172.254-.105 1.004.016 1.051.551.184 1.156.199 2.035.305-.172-.687-.156-1.129-.363-1.32-.508-.473-1.172-.816-1.687-.035m60.597 37.718c.004.082.609.238.656.168.164-.25.211-.574.293-.852l-.836-.395c-.051.363-.145.727-.113 1.078"/><path d="M244.703 277.574c-.109.227-.363.566-.293.66.184.242.508.391.809.594.148-.355.375-.719.313-.789-.215-.211-.543-.32-.828-.465M180.23 169.281c-.086.18-.109.391-.156.586l.672.027c-.059-.203-.098-.422-.191-.602-.027-.051-.309-.051-.324-.012m-49.911-4.272c-.078.293-.109.605-.152.914l.746.055-.258-1.02a.65.65 0 0 0-.336.051m56.672-14.043c-.023-.059-.344-.051-.363-.008-.09.199-.109.422-.16.637l.773.078c-.09-.281-.137-.516-.25-.707m68.113 32.668c.004.063.152.109.242.164.004-.012.012-.023.02-.035-.047-.129-.07-.277-.121-.402-.055.094-.148.191-.141.273m9.668 76.75l-.242.063.133.16zm0 0"/><path d="M255.848 184.059l.281.207-.043-.328zM239.75 83.316c.418.281 1.223.172 1.77-.02.191-.066.316-1.125.102-1.328-.391-.363-1.059-.422-2.02-.746.043 1-.141 1.902.148 2.094M100.766 212.254c-.164.102-.336.176-.496.266l.098.855c.242-.082.484-.164.699-.301.039-.031-.152-.434-.301-.82M211.207 92.961c.219.094.496.051.746.063l.313-.211c-.219-.254-.395-.645-.668-.734-.203-.074-.535.23-.809.371.133.18.242.422.418.512m-23.519 161.151c1.852-.875 2.445-1.148 3.395-1.02l.059-.187c.234-.637.602-1.23 1.035-1.805-.605-.164-1.266-.305-1.965-.223-1.695.211-.645-2.684-2.777-1.906.828 2.629.828 2.629.254 5.141m21.831-35.668c.734.414 1.504.723 2.453-.16-.445-.477-.82-1.059-1.352-1.402-.363-.234-1.004-.332-1.395-.172-.523.211-.316 1.391.293 1.734m-37.996 39.66c.113-.023.133-.395.195-.605l-1-.172-.102.77c.305.016.625.086.906.008m-51.928-37.223c-.133-.09-.445.102-.676.164.117.293.211.605.379.867.023.039.398-.152.77-.293-.16-.281-.254-.598-.473-.738"/><path d="M129.109 151.844c-.133.18-.223.402-.324.598l.559.027.109-.586c-.121-.016-.305-.082-.344-.039m9.555 21.238l-.617 1.078c.539.031.891.109 1.211.039.113-.031.273-.523.195-.613-.195-.227-.523-.344-.789-.504m122.617-71.574c-.113.012-.297-.016-.332.051-.086.164-.121.375-.172.559l.586.039-.082-.648m-19.355-19.962c-.031-.062-.184-.062-.285-.086l-.02.508.273-.102c.02-.109.07-.234.031-.32"/><path d="M141.605 140.383c-.141.176-.215.395-.324.594l.563.023.105-.586c-.121-.012-.312-.082-.344-.031m113.641 42.976c.051.125.074.273.121.402.031.09.066.164.125.215.109.098.391-.02.594-.039-.078-.207-.102-.484-.25-.605-.113-.094-.387.016-.59.027"/><path d="M122.711 252.559c2.125-1.027 1.965-2.418 2.105-3.84l-1.504-.141-.602 3.98m192.087-129.105c-.414.371-1.289.168-1.332 1.316.727-.098 1.121-.59 1.559-.957.016-.016-.145-.238-.227-.359m-89.371 120.895c-.086-.234-.109-.605-.258-.664-.184-.062-.469.121-.711.199l.262.727.707-.262m-44.645-22.164c.148.113.625.09.652.012.121-.305.121-.664.203-1.32-.555.32-.887.434-1.09.664-.078.09.078.516.234.645m63.935-2.15l-.336-.16c-.047.082-.148.18-.133.25.031.121.125.223.195.328l.273-.418m1.708 22.516l.383.297.172-.324c-.082-.062-.18-.184-.246-.172-.117.02-.207.129-.309.199m-41.805 26.25l-.324.129.309.363c.059-.094.141-.191.168-.301.004-.051-.102-.125-.152-.191m-47.661-16.332c-.039.063.102.227.266.574.383 0 .918.102 1.352-.059.23-.082.281-.633.418-.969-.465-.141-.934-.391-1.395-.363-.234.012-.449.516-.641.816m59.848-142.148c.105-.426.16-.887.117-1.324-.008-.07-.617-.078-1.293-.148.211.664.297 1.102.504 1.48.055.094.656.055.672-.008m80.226 117.125l.766-1.562-.828-.785.063 2.348M54.316 96.633c-.094-.039-.434.281-.504.492-.125.363-.195.777-.164 1.16.02.199.27.473.473.531.211.063.488-.078.969-.18.043-.422.207-.934.105-1.379-.07-.273-.547-.492-.879-.625m-.91 11.942l.078.727.949-.18c-.098-.23-.137-.566-.309-.664-.164-.094-.469.066-.719.117m172.47-24.199c.078.023.191-.078.289-.121l-.039-.309-.453.172c.063.09.113.23.203.258m49.152 138.563a12.82 12.82 0 0 0 .508-1.367c.031-.102-.094-.25-.152-.371-.246.078-.699.121-.711.238-.086.484-.035.996-.016 1.492 0 .012.352.051.371.008m-120.976-54.313l-.031.281c.184-.008.375.012.547-.031.051-.016.102-.289.07-.309a1.93 1.93 0 0 0-.406-.191l-.152-.062-.027.313m76.284 48.421c-.109-.223-.168-.535-.344-.629-.137-.07-.422.125-.637.203l.004.676.977-.25m-14.598 84.117l.012-.559c-.211.09-.434.16-.617.285-.051.031.004.23.012.352l.594-.078m15.738-2.168c-.109.039-.27.039-.312.109-.051.082-.008.23-.008.352l.336-.121-.016-.34m3.621 30.586c1.516-.742 1.719-1.953 1.531-3.324-.754.645-1.371 1.48-2.676.898-.773-.336-1.129.473-1.312 1.371l2.457 1.055M154.34 198.391c.105-.012.246-.707.156-1.023-.207-.723-1.094-1.113-1.535-.68-.305.309-.363.863-.668 1.652.91.047 1.484.137 2.047.051m129.355 45.019c.285.129.637.129.961.172.031-.234.16-.547.059-.695-.203-.301-.543-.512-.977-.891-.035.953-.125 1.375-.043 1.414M190.504 61.758c0-.059-.945-.27-.988-.187-.262.543-.422 1.145-.531 1.742-.004.047.641.203 1.238.395l.281-1.949m-26.613 33.796c.543-.484 1.016-1.047 1.605-1.691-1.687-.316-2.406.051-2.367 1.113.004.207.711.625.762.578m-92.614 20.117c-.164.281-.133.684-.184 1.027l1.629.039c-.062-.621.047-1.137-.156-1.359-.48-.516-.996-.211-1.289.293"/><path d="M97.754 115.316c-.176.09-.266.797-.113 1.008.16.215.801.375 1 .234.949-.664 1.816-1.449 2.711-2.187l-.398-.406-3.199 1.352m39.311-8.18c-1.344-.699-2.707-.609-4.926.258l4.395 1.332c.281.063.848-.289.945-.566s-.148-.883-.414-1.023m13.43-38.353c.086.184.395.254.605.375l.309-.949-.676-.051c-.09.211-.309.484-.238.625m53.832 79.52c-.578.566-.691 1.27.07 1.617.906.43 1.949.57 2.938.836l.293-.746-2.535-1.754c-.172-.105-.496.027-.766.047"/><path d="M140.566 87.277c-.367-.211-.871-.172-1.551-.277.137.66.145 1.246.297 1.285.426.113.918.004 1.383-.016-.039-.348.043-.902-.129-.992m-28.906 188.84l.051.625c.195-.055.398-.094.586-.184.035-.02.02-.312-.031-.332-.191-.07-.402-.078-.605-.109m97.042-91.961c.02-.121.105-.305.059-.34-.172-.125-.375-.215-.566-.316.051.215.09.434.18.629.02.051.215.02.328.027m39.362-18.281c.102-.082.043-.355.063-.555-.242.09-.469.152-.668.262-.043.027.008.34.027.34.195.012.449.055.578-.047m-67.75 5.441c.188-.32.23-.723.43-1.422-.969.223-1.492.234-1.875.477-.191.117-.273.734-.141.984.352.625 1.23.586 1.586-.039m21.586-67.558c.113.023.355-.043.363-.098l.203-2.332c0-.102-.418-.238-.656-.309-.09-.016-.223.109-.305.156l.094 2.332c.008.09.18.219.301.25"/></g><path d="M280.941 140.48a7.24 7.24 0 0 1 7.203 7.203 7.24 7.24 0 0 1-7.203 7.203 7.24 7.24 0 0 1-7.203-7.203 7.24 7.24 0 0 1 7.203-7.203" class="F"/><path d="M237.723 122.473H208.91c-8.145 0-12.168-6.121-13.687-12.254l-5.262 1.77a14.35 14.35 0 0 0-9.863 13.648v7.641h-3.602a10.8 10.8 0 0 0-7.414 2.953c-2.195-5.078-3.391-10.594-3.391-16.25 0-22.469 18.262-40.73 40.73-40.73h4.977a40.48 40.48 0 0 1 28.773 11.961c7.387 7.344 11.957 17.543 11.957 28.77 0 5.656-1.195 11.172-3.391 16.25a10.8 10.8 0 0 0-7.414-2.953h-3.602v-10.805" fill="rgb(39.608765%,42.749023%,47.059631%)"/><path d="M223.316 176.891v6.809a14.4 14.4 0 1 1-28.812 0v-6.809c-32.414 3.602-57.625 31.078-57.625 64.434v10.805c0 13.437 9.188 24.707 21.609 27.914v15.305h100.844v-15.305c12.422-3.207 21.609-14.477 21.609-27.914v-10.805c0-33.355-25.211-60.832-57.625-64.434" fill="rgb(98.81897%,84.309387%,43.919373%)"/><path d="M187.301 234.727v20.398l-26.687-26.73c-1.367-1.336-2.125-3.164-2.125-5.078s.758-3.742 2.125-5.078a7.1 7.1 0 0 1 10.156 0l16.531 16.488" class="F"/><path d="M230.52 280.941v14.406h-43.219v-72.031h43.219v36.016h-3.602a7.24 7.24 0 0 0-7.203 7.203v7.203a7.23 7.23 0 0 0 7.203 7.203h3.602" class="G"/><g fill="rgb(94.119263%,81.568909%,70.588684%)"><path d="M248.527 259.332v21.609h-21.609a7.23 7.23 0 0 1-7.203-7.203v-7.203a7.24 7.24 0 0 1 7.203-7.203h3.602a7.24 7.24 0 0 1 7.203-7.203h.605c1.914 0 3.758.762 5.121 2.125l5.078 5.078m.438-122.891c1.941 1.941 3.164 4.645 3.164 7.641a10.79 10.79 0 0 1-10.805 10.805h-3.602v-21.609h3.602a10.8 10.8 0 0 1 7.414 2.953c.086.07.141.141.227.211"/><path d="M223.316 176.93v6.77a14.406 14.406 0 1 1-28.812 0v-6.809c2.379-.254 4.754-.395 7.203-.395h14.406c2.449 0 4.824.141 7.203.395v.039m14.407-43.653v21.609c0 11.914-9.691 21.609-21.609 21.609h-14.406c-11.918 0-21.609-9.695-21.609-21.609v-29.25a14.35 14.35 0 0 1 9.863-13.648l5.262-1.77c1.52 6.133 5.543 12.254 13.688 12.254h28.813v10.805"/><path d="M180.098 133.277v21.609h-3.602c-2.996 0-5.699-1.227-7.641-3.168s-3.164-4.641-3.164-7.637a10.74 10.74 0 0 1 3.391-7.852 10.8 10.8 0 0 1 7.414-2.953h3.602"/></g><path d="M150.891 163.637l-4.402 17.543c-1.395 5.727-6.559 9.723-12.426 9.723h-7.988v9.609c0 2.645-2.152 4.797-4.801 4.797-1.504 0-2.953-.719-3.852-1.914l-9.355-12.492H96.473c-5.883 0-11.031-3.996-12.422-9.723l-4.406-17.543c-.254-1.043-.395-2.098-.395-3.137 0-7.09 5.727-12.816 12.816-12.816h46.402a12.93 12.93 0 0 1 9.074 3.742c2.293 2.305 3.742 5.555 3.742 9.074 0 1.039-.141 2.094-.395 3.137" class="G"/><path d="M223.316 154.887h-7.203a3.61 3.61 0 0 1-3.602 3.602h-14.406v7.203h14.406a10.81 10.81 0 0 0 10.805-10.805m-28.812-21.61a3.61 3.61 0 0 0-3.602 3.602 3.61 3.61 0 0 0 3.602 3.602 3.61 3.61 0 0 0 3.602-3.602 3.61 3.61 0 0 0-3.602-3.602m28.812 7.203a3.61 3.61 0 0 0 3.602-3.602 3.61 3.61 0 0 0-3.602-3.602 3.61 3.61 0 0 0-3.602 3.602 3.61 3.61 0 0 0 3.602 3.602" class="B"/><g clip-path="url(#A)" class="B"><path d="M270.137 93.656a10.81 10.81 0 0 1 10.805-10.805 10.81 10.81 0 0 1 10.805 10.805 10.89 10.89 0 0 1-4.316 8.652l-10.09 7.559v23.41h7.203v-19.809l7.203-5.402a18.08 18.08 0 0 0 7.203-14.41 18.03 18.03 0 0 0-18.008-18.008c-9.93 0-18.008 8.078-18.008 18.008v3.602h7.203v-3.602"/></g><path d="M284.543 147.684a3.61 3.61 0 0 1-3.602 3.602 3.61 3.61 0 0 1-3.602-3.602 3.61 3.61 0 0 1 3.602-3.602 3.61 3.61 0 0 1 3.602 3.602zm-14.406 0a10.81 10.81 0 0 0 10.805 10.805 10.81 10.81 0 0 0 10.805-10.805 10.81 10.81 0 0 0-10.805-10.805 10.81 10.81 0 0 0-10.805 10.805" class="B"/><g clip-path="url(#B)" class="B"><path d="M162.09 284.332c1.18.129 2.375.211 3.602.211h18.008v7.203H162.09zm-21.609-32.203v-10.805c0-30.066 21.805-55.094 50.422-60.215v2.59c0 9.934 8.074 18.008 18.008 18.008s18.008-8.074 18.008-18.008v-2.59c28.617 5.121 50.422 30.148 50.422 60.215v10.805c0 13.902-11.309 25.211-25.211 25.211v-14.91c6.191-1.621 10.805-7.203 10.805-13.902v-25.211h-7.203v25.211c0 3.504-2.516 6.43-5.836 7.078l-3.914-3.91a10.72 10.72 0 0 0-7.637-3.168h-.621a10.87 10.87 0 0 0-3.602.633v-29.445h-50.422v6.332l-10.371-10.371c-4.078-4.078-11.195-4.078-15.277 0a10.75 10.75 0 0 0-3.164 7.641v25.211a14.42 14.42 0 0 0 14.406 14.406h14.406v14.406h-18.008c-13.902 0-25.211-11.309-25.211-25.211zm43.219-97.242v-29.234a10.8 10.8 0 0 1 7.387-10.258l1.855-.617c2.703 6.426 8.063 11.297 15.969 11.297h25.211v28.813a18.03 18.03 0 0 1-18.008 18.008h-14.406a18.03 18.03 0 0 1-18.008-18.008zm-7.203-29.234v4.023c-1.969 0-3.871.391-5.57 1.125-1.07-3.488-1.633-7.105-1.633-10.805 0-20.473 16.672-37.145 37.141-37.145h4.953c20.469 0 37.141 16.672 37.141 37.145 0 3.699-.562 7.316-1.617 10.805-1.715-.734-3.617-1.125-5.586-1.125v-18.008h-7.203v6.512c-5.586-2.207-7.203-9.523-7.203-13.715h-7.203c0 5.191 1.465 10.395 4.293 14.406h-.691c-8.539 0-10.805-9.43-10.805-14.406h-7.203c0 5.191 1.465 10.395 4.289 14.406h-.687c-8.539 0-10.805-9.43-10.805-14.406h-7.203c0 1.109.086 2.223.211 3.332l-2.309.773a17.98 17.98 0 0 0-12.309 17.082zm-7.203 18.43a7.22 7.22 0 0 1 7.203-7.203v14.406a7.22 7.22 0 0 1-7.203-7.203zm72.031 7.203v-14.406a7.22 7.22 0 0 1 7.203 7.203 7.22 7.22 0 0 1-7.203 7.203zm-43.219 28.996c1.195-.07 2.379-.184 3.602-.184h14.406c1.223 0 2.406.113 3.602.184v3.418a10.81 10.81 0 0 1-10.805 10.805 10.81 10.81 0 0 1-10.805-10.805zm28.813 75.449a10.81 10.81 0 0 0-10.805 10.805v7.203a10.81 10.81 0 0 0 10.805 10.805v7.203h-36.016v-64.828h36.016zm18.008 21.609h-18.008a3.61 3.61 0 0 1-3.602-3.602v-7.203a3.61 3.61 0 0 1 3.602-3.602h7.203v-3.602a3.61 3.61 0 0 1 3.602-3.602h.621c.941 0 1.871.379 2.547 1.055l4.035 4.039zm-82.836-42.348l20.738 20.738h-13.535a7.22 7.22 0 0 1-7.203-7.203zm21.609 11.426l-20.555-20.555a3.53 3.53 0 0 1-1.055-2.547 3.54 3.54 0 0 1 1.055-2.547c1.379-1.379 3.715-1.379 5.094 0l15.461 15.461zm72.031 45.328h-21.609v-7.203h18.008c1.227 0 2.422-.082 3.602-.211zm7.203-9.086c12.566-4.477 21.609-16.449 21.609-30.531v-10.805c0-32.398-22.648-59.539-52.941-66.586 5.012-3.926 8.484-9.68 9.43-16.25h.293a14.42 14.42 0 0 0 14.406-14.406c0-3.207-1.082-6.148-2.871-8.539 1.875-4.996 2.871-10.203 2.871-15.547 0-24.453-19.891-44.348-44.344-44.348h-4.953c-24.453 0-44.344 19.895-44.344 44.348 0 5.359.996 10.566 2.871 15.547-1.789 2.391-2.871 5.332-2.871 8.539a14.42 14.42 0 0 0 14.406 14.406h.293c.945 6.57 4.418 12.324 9.43 16.25-30.293 7.047-52.941 34.188-52.941 66.586v10.805c0 14.082 9.043 26.055 21.609 30.531v9.086H75.648v7.203h223.301v-7.203h-36.016v-9.086"/></g><g clip-path="url(#C)" class="B"><path d="M92.082 151.285h46.371c5.094 0 9.23 4.137 9.23 9.227a9.25 9.25 0 0 1-.281 2.238l-4.375 17.559a9.23 9.23 0 0 1-8.965 6.992h-11.59v13.211c0 1.039-1.551 1.531-2.168.719l-10.437-13.93H96.473c-4.234 0-7.922-2.871-8.961-6.992l-4.379-17.559c-.18-.73-.281-1.492-.281-2.238 0-5.09 4.137-9.227 9.23-9.227zm-11.551 30.766c1.828 7.332 8.387 12.453 15.941 12.453h9.793l8.285 11.043c1.574 2.109 4.078 3.363 6.723 3.363 4.629 0 8.402-3.77 8.402-8.398v-6.008h4.387c7.555 0 14.113-5.121 15.941-12.453l4.391-17.555a16.66 16.66 0 0 0 .492-3.984c0-9.059-7.375-16.43-16.434-16.43H92.082c-9.059 0-16.434 7.371-16.434 16.43a16.86 16.86 0 0 0 .492 3.984l4.391 17.555"/></g><path d="M136.879 158.488H93.656v7.203h43.223v-7.203m0 14.407H93.656v7.203h43.223v-7.203" class="B"/><path d="M79.297 51.957s2.5-9.797 15.789-12.102 22.152 7.492 22.152 7.492 3.637-7.953 16.246-2.652 10.906 16.48 10.906 16.48 7.156-1.035 9.199 6.57-2.27 11.871-5.449 12.906c0 0-4.434 9.105-16.816 2.996 0 0-.113 4.383-6.699 6.227s-10.793-1.961-10.793-1.961-4.09 5.301-9.996-.344c0 0-1.934 5.301-10.793 4.379s-9.883-8.758-9.883-8.758-7.383 7.258-19.766 2.996-10.453-9.566-10.453-9.566-10.449 2.188-12.949-4.496 9.883-17.977 17.836-11.984c0 0 1.137-5.07 7.043-9.105s14.426.922 14.426.922zm0 0" class="C"/><path d="M153.59 67.746c2.047 7.605-2.27 11.871-5.449 12.906 0 0-4.434 9.105-16.816 2.996 0 0-.113 4.383-6.699 6.227s-10.793-1.961-10.793-1.961-4.09 5.301-9.996-.344c0 0-1.934 5.301-10.793 4.379s-9.883-8.758-9.883-8.758-7.383 7.258-19.766 2.996-10.453-9.566-10.453-9.566-10.449 2.188-12.949-4.496c0 0 6.359 5.762 17.379.578 0 0-.566 4.953 7.387 8.871S80.32 82.383 86 77.887c0 0 .453 6.34 7.723 8.066s8.297-3.34 8.297-3.34 1.59 2.535 5.109 3.805 5.906-2.309 5.906-2.309 3.297 2.766 8.977 2.766 6.93-5.645 3.977-8.871c0 0 5.566 3.688 11.359 3.688s6.93-4.266 6.93-4.266 3.746.809 7.043-2.418 2.27-7.262 2.27-7.262zm0 0" fill="rgb(75.689697%,81.568909%,82.749939%)"/><path d="M342.121 173.426l5.234-5.223a2.07 2.07 0 0 0 0-2.926c-.812-.809-2.125-.809-2.934 0l-5.16 5.148a22.85 22.85 0 0 1 2.859 3" class="C"/><g clip-path="url(#D)" class="C"><path d="M325.348 165.152h.059c.684 0 1.352.043 2.016.113v-7.016c0-1.141-.93-2.066-2.074-2.066s-2.07.926-2.07 2.066v7.016l2.012-.113h.059"/></g><path d="M308.574 173.43c.867-1.09 1.813-2.102 2.855-3.004l-5.16-5.148a2.08 2.08 0 0 0-2.934 0 2.06 2.06 0 0 0 0 2.926l5.238 5.227" class="C"/><g clip-path="url(#E)" class="C"><path d="M303.473 188.109c0-1 .082-1.98.199-2.941h-7.375a2.07 2.07 0 0 0-2.074 2.066 2.07 2.07 0 0 0 2.074 2.07h7.203l-.027-1.195"/></g><path d="M303.336 206.262c-.812.809-.812 2.121 0 2.93a2.08 2.08 0 0 0 2.934 0l3.801-3.793c-.855-.961-1.75-2.027-2.59-3.266l-4.145 4.129" class="C"/><g clip-path="url(#F)" class="C"><path d="M326.273 226.738h-5.441l-.016.184c0 1.09 1.684 1.973 3.238 1.973h2.582c1.559 0 3.234-.883 3.234-1.973l-.004-.184h-3.594"/></g><path d="M330.633 221.711h-10.57a1.98 1.98 0 0 0-1.98 1.977 1.98 1.98 0 0 0 1.98 1.977h10.57a1.98 1.98 0 0 0 1.977-1.977 1.98 1.98 0 0 0-1.977-1.977m0-4.984h-10.57c-1.094 0-1.98.883-1.98 1.973a1.98 1.98 0 0 0 1.98 1.977h10.57a1.98 1.98 0 0 0 1.977-1.977c0-1.09-.887-1.973-1.977-1.973m-6.352-39.414c-2.398.094-4.031.742-5.277 1.629s-2.113 2.074-2.734 3.34c-1.25 2.52-1.359 5.316-1.352 5.504v.004a2.14 2.14 0 0 1-2.141 2.137c-1.184 0-2.145-.957-2.145-2.137 0-.094.008-1.176.293-2.746s.848-3.625 2.039-5.652c.797-1.352 1.883-2.687 3.352-3.785 1.957-1.469 4.578-2.457 7.816-2.562 1.184-.043 2.176.879 2.215 2.059s-.879 2.172-2.066 2.211zm20.059 10.797a18.88 18.88 0 0 0-3.844-11.441 19.06 19.06 0 0 0-8.332-6.27l.02-.094-1.426-.414c-1.105-.32-2.246-.543-3.406-.66l-.168-.023h-.012l-1.781-.094h-.09c-.617 0-1.211.043-1.781.094h-.008l-.172.023a19.1 19.1 0 0 0-3.406.66l-1.379.402.016.09c-3.352 1.285-6.242 3.48-8.371 6.285a18.83 18.83 0 0 0-3.844 11.441c-.004 3.078.527 5.609 1.359 7.707 1.246 3.141 3.148 5.266 4.676 6.871.762.805 1.434 1.488 1.895 2.07.465.594.688 1.047.758 1.41.332 1.758.367 3.977.367 4.539l-.004.109v.051c.004 2.543 2.066 4.598 4.609 4.598h10.66a4.6 4.6 0 0 0 4.609-4.598v-.156c-.004-.555.031-2.781.367-4.543.047-.242.156-.52.367-.859.367-.594 1.055-1.34 1.906-2.227 1.277-1.34 2.91-3.031 4.195-5.434 1.297-2.398 2.227-5.5 2.219-9.539m-1.124 14.025c-.84 1.238-1.734 2.305-2.594 3.266l3.801 3.793c.809.809 2.121.809 2.934 0a2.07 2.07 0 0 0 0-2.93l-4.141-4.129" class="C"/><g clip-path="url(#G)" class="C"><path d="M354.398 185.168h-7.375c.117.961.195 1.941.195 2.941l-.023 1.195h7.203c1.145 0 2.074-.926 2.074-2.07s-.93-2.066-2.074-2.066"/></g><path d="M54.688 132.273l5.262-5.238c.813-.809.813-2.125 0-2.937s-2.137-.809-2.949 0l-5.187 5.164c1.047.906 2.004 1.918 2.875 3.012" class="B"/><g clip-path="url(#H)" class="B"><path d="M37.824 123.973h.059c.688 0 1.359.047 2.027.113v-7.035c0-1.145-.934-2.07-2.086-2.07s-2.082.926-2.082 2.07v7.035l2.023-.113h.059"/></g><path d="M20.961 132.273c.871-1.09 1.824-2.105 2.871-3.012l-5.187-5.164a2.09 2.09 0 0 0-2.945 0 2.06 2.06 0 0 0 0 2.938l5.262 5.238" class="B"/><g clip-path="url(#I)" class="B"><path d="M15.832 146.996c0-1 .082-1.984.203-2.949H8.621a2.08 2.08 0 0 0-2.086 2.074 2.08 2.08 0 0 0 2.086 2.078h7.238l-.027-1.203"/></g><path d="M15.699 165.203a2.06 2.06 0 0 0 0 2.938c.813.813 2.133.813 2.945 0l3.824-3.805c-.863-.965-1.762-2.035-2.605-3.273l-4.164 4.141" class="B"/><g clip-path="url(#J)" class="B"><path d="M38.754 185.742h-5.469l-.016.18c0 1.094 1.691 1.98 3.254 1.98h2.598c1.566 0 3.254-.887 3.254-1.98l-.008-.18h-3.613"/></g><path d="M43.137 180.699H32.512c-1.098 0-1.988.887-1.988 1.98a1.99 1.99 0 0 0 1.988 1.984h10.625a1.99 1.99 0 0 0 1.988-1.984c0-1.094-.891-1.98-1.988-1.98m0-5.004H32.512c-1.098 0-1.988.887-1.988 1.984 0 1.09.891 1.98 1.988 1.98h10.625c1.098 0 1.988-.891 1.988-1.98 0-1.098-.891-1.984-1.988-1.984m-6.383-39.527c-2.414.094-4.055.746-5.309 1.637-1.246.891-2.121 2.078-2.75 3.348-1.254 2.527-1.363 5.332-1.355 5.52v.004a2.15 2.15 0 0 1-2.152 2.145c-1.187 0-2.156-.961-2.156-2.145 0-.09.008-1.18.293-2.754s.855-3.633 2.055-5.668c.797-1.355 1.891-2.695 3.367-3.797 1.965-1.473 4.602-2.465 7.855-2.57a2.15 2.15 0 0 1 2.23 2.066c.043 1.18-.887 2.176-2.078 2.215zm20.164 10.828c0-4.305-1.441-8.289-3.863-11.473a19.16 19.16 0 0 0-8.379-6.289l.02-.09-1.43-.418c-1.113-.324-2.258-.547-3.43-.664l-.164-.02h-.012c-.574-.055-1.168-.098-1.789-.098h-.094c-.621 0-1.219.043-1.789.098h-.008l-.176.02a18.93 18.93 0 0 0-3.422.664l-1.387.402.016.09a19.25 19.25 0 0 0-8.418 6.305c-2.426 3.184-3.867 7.168-3.863 11.473-.004 3.086.531 5.629 1.367 7.73 1.25 3.152 3.168 5.281 4.699 6.891.77.809 1.445 1.492 1.906 2.078.469.594.691 1.051.762 1.414.336 1.762.367 3.984.367 4.551v.164c0 2.551 2.074 4.609 4.633 4.609h10.719c2.559 0 4.629-2.062 4.633-4.609v-.027l-.004-.027v-.105c0-.559.035-2.789.371-4.555.047-.246.156-.523.371-.863.367-.598 1.059-1.344 1.918-2.234 1.281-1.344 2.922-3.039 4.215-5.449 1.305-2.402 2.234-5.512 2.23-9.566m-1.128 14.065c-.848 1.242-1.746 2.309-2.609 3.273l3.82 3.805a2.09 2.09 0 0 0 2.949 0c.813-.812.813-2.129 0-2.937l-4.16-4.141" class="B"/><g clip-path="url(#K)" class="B"><path d="M67.027 144.047h-7.414c.121.965.199 1.949.199 2.949l-.027 1.203h7.242c1.152 0 2.086-.93 2.086-2.078a2.08 2.08 0 0 0-2.086-2.074"/></g></svg>