<svg xmlns="http://www.w3.org/2000/svg" width="500" height="500" viewBox="0 0 375 375" xmlns:v="https://vecta.io/nano"><defs><clipPath id="A"><path d="M0 23.438h374v328.5H0zm0 0"/></clipPath></defs><g clip-path="url(#A)"><path d="M26.871 349.086c4.086 1.754 8.758 2.34 13.434 2.34h257.594c21.609 0 42.641-17.543 46.145-39.18l29.203-165.492c1.754-11.113-.582-21.055-7.008-29.238-7.008-7.605-16.355-11.699-27.453-11.699h-2.922c-5.84-14.617-19.859-23.973-37.383-23.973h-6.426V29.797c0-3.508-2.336-5.848-5.84-5.848H52.57c-3.504 0-5.84 2.34-5.84 5.848V47.34h-6.426C18.109 47.34 0 65.469 0 87.105v223.969c0 17.547 11.098 32.75 26.871 38.012zM298.48 93.539c14.02 0 24.535 7.602 27.453 19.297.586 2.34 2.336 3.508 4.676 4.094.582.586 1.168.586 2.336.586h5.84c7.594 0 14.02 2.922 18.105 7.602 4.09 5.262 5.844 12.277 4.676 19.883l-28.621 164.906c-2.922 16.375-18.691 29.824-35.047 29.824H40.305c-3.504 0-7.594-.586-10.516-2.34-2.918-1.168-5.84-3.508-7.594-5.848-4.086-5.262-5.84-12.281-4.672-19.883l28.621-164.906c2.922-16.375 18.691-29.238 35.047-29.238h205.023c3.504 0 5.84-2.34 5.84-5.848V93.539zM58.41 35.645h221.965v70.172H81.191c-8.176 0-15.77 2.34-22.781 6.434zM40.305 59.035h6.426v62.57c-5.844 6.434-10.516 14.621-11.684 23.395L11.684 277.742V87.105c0-15.203 12.848-28.07 28.621-28.07zm0 0" fill="rgb(7.449341%,28.239441%,7.058716%)"/></g><g fill="rgb(7.449341%,28.239441%,7.058716%)"><path d="M172.898 140.906H87.031c-9.344 0-18.105 7.016-19.859 16.371l-1.168 5.848c-1.168 4.68 0 9.359 2.922 12.867s7.008 5.262 12.266 5.262h85.863c9.348 0 18.109-7.016 19.859-16.371l1.172-5.848c1.168-4.68 0-9.359-2.922-12.867s-7.594-5.262-12.266-5.262zm3.504 16.371l-1.168 5.848c-.586 3.512-4.672 7.02-8.18 7.02H81.191c-1.168 0-2.336-.586-2.922-1.172s-1.168-1.754-.582-3.508l1.168-5.848c.582-3.508 4.672-7.016 8.176-7.016h85.867c1.168 0 2.336.582 2.918 1.168s1.168 1.754.586 3.508zm-18.691 36.258H64.254c-3.508 0-5.844 2.34-5.844 5.848s2.336 5.848 5.844 5.848h93.457c3.504 0 5.84-2.34 5.84-5.848s-2.336-5.848-5.84-5.848zM87.617 70.73h163.551c3.504 0 5.84-2.34 5.84-5.848s-2.336-5.848-5.84-5.848H87.617c-3.504 0-5.84 2.34-5.84 5.848s2.336 5.848 5.84 5.848zm163.551 11.696h-23.363c-3.504 0-5.844 2.34-5.844 5.848s2.34 5.848 5.844 5.848h23.363c3.504 0 5.84-2.336 5.84-5.848s-2.336-5.848-5.84-5.848zm0 0"/><path d="M87.617 94.121h110.98c3.504 0 5.84-2.336 5.84-5.848s-2.336-5.848-5.84-5.848H87.617c-3.504 0-5.84 2.34-5.84 5.848s2.336 5.848 5.84 5.848zm0 0"/></g></svg>