<svg xmlns="http://www.w3.org/2000/svg" width="945" height="756" viewBox="0 0 708.75 567" xmlns:v="https://vecta.io/nano"><defs><clipPath id="A"><path d="M365 0h257.246v554.852H365zm0 0"/></clipPath></defs><path d="M221.195 406.977c3.695 0 6.699 3.004 6.699 6.699 0 .738-.098 1.477-.344 2.168-7.293 18.816 2.066 39.996 20.934 47.289 12.91 4.973 27.637 2.215 37.836-7.191 2.758-2.465 7.043-2.266 9.508.492a6.74 6.74 0 0 1-.395 9.457c-20.297 18.668-51.922 17.34-70.594-3.004-12.906-13.992-16.699-34.137-9.805-51.871 1.035-2.461 3.449-4.039 6.16-4.039zM307.602 0a79.59 79.59 0 0 0-50.543 16.355 81.06 81.06 0 0 1 47.094 28.027c2.316 2.906 1.824 7.141-1.082 9.457-2.859 2.215-6.945 1.824-9.312-.887-23.695-28.914-66.355-33.102-95.227-9.41-22.461 18.473-30.641 49.211-20.293 76.352-38.574 7.242-63.945 44.336-56.703 82.906 1.527 8.078 4.434 15.809 8.57 22.902-30.887 15.172-43.648 52.559-28.473 83.496 1.379 2.805 3.004 5.516 4.777 8.125 17.934-21.031 44.582-32.508 72.172-31.18-1.48-28.617 20.492-53.004 49.113-54.527 4.336-.199 8.672.145 12.957.984 3.598.785 5.863 4.383 5.074 8.027a6.73 6.73 0 0 1-7.734 5.125c-20.836-4.187-41.086 9.258-45.32 30.047-.789 3.988-.937 8.027-.492 12.02 20.641 4.234 39.164 15.664 52.219 32.215 2.313 2.906 1.871 7.141-1.035 9.457-2.859 2.363-7.094 1.922-9.461-.984 0-.051-.047-.098-.098-.148-25.863-32.855-73.5-38.57-106.41-12.707-32.855 25.91-38.57 73.543-12.707 106.398 10.836 13.742 26.059 23.297 43.105 27.09-3.598 36.258 22.711 68.57 58.918 72.461 29.461 37.684 83.848 44.285 121.484 14.879 5.121-3.992 9.754-8.574 13.844-13.648v-99.305c-12.121-34.184-47.984-53.789-83.305-45.562a6.74 6.74 0 0 1-8.082-5.027c-.836-3.645 1.43-7.238 5.027-8.078a84.72 84.72 0 0 1 86.359 30.887V166.789c-17.59-34.578-59.906-48.32-94.437-30.734-13.992 7.141-25.176 18.715-31.777 32.902-1.574 3.398-5.566 4.828-8.965 3.254-3.352-1.578-4.828-5.566-3.25-8.918 19.555-41.871 69.313-59.996 111.234-40.492 10.348 4.828 19.609 11.773 27.195 20.297V15.172C339.082 5.762 323.613.441 307.602 0" fill="rgb(91.369629%,76.858521%,41.569519%)"/><g clip-path="url(#A)"><path d="M417.707 203.832c30.051-.785 55.074 22.957 55.863 53.004v1.625c49.117 2.316 87 43.938 84.684 93-.098 2.316-.293 4.582-.59 6.848-.297 3.695-3.547 6.453-7.242 6.109a6.73 6.73 0 0 1-6.156-7.242c.047-.195.047-.344.098-.543 5.172-41.375-24.187-79.109-65.57-84.281-23.5-2.953-47.047 5.32-63.551 22.316-2.461 2.805-6.699 3.055-9.508.59-2.758-2.465-3.055-6.699-.59-9.508l.441-.441c14.535-14.926 33.844-24.285 54.535-26.453.297-22.66-17.785-41.277-40.445-41.574-3.203-.051-6.355.297-9.457.938-3.645.738-7.191-1.629-7.883-5.273-.691-3.547 1.527-6.945 4.977-7.832 3.398-.738 6.895-1.18 10.395-1.281zM409.922 0c-16.012.492-31.48 5.762-44.434 15.172v50.59c11.426-6.406 24.926-7.832 37.438-3.891 3.449 1.277 5.273 5.121 3.992 8.617-1.184 3.254-4.68 5.074-8.078 4.188-11.676-3.645-24.437-.738-33.402 7.586v364.566c14.137-15.418 35.715-21.625 55.863-16.012 3.5 1.133 5.422 4.977 4.289 8.473-1.133 3.254-4.484 5.223-7.836 4.434-22.461-6.156-45.664 6.945-51.871 29.41-.148.492-.25 1.035-.395 1.527v48.172c30.148 37.145 84.633 42.758 121.73 12.613 5.07-4.09 9.605-8.719 13.594-13.844 29.066-3.102 52.664-24.926 58.082-53.641-44.039 11.18-89.758-10.738-108.625-52.066-1.43-3.402.246-7.34 3.645-8.77 3.254-1.332 6.996.051 8.574 3.203 18.422 40.488 66.16 58.371 106.652 39.949s58.379-66.156 39.953-106.648A80.9 80.9 0 0 0 600.473 329c26.16-22.414 29.164-61.77 6.75-87.926-5.469-6.406-12.219-11.625-19.805-15.371 19.559-33.988 7.832-77.383-26.156-96.941s-77.445-7.832-96.953 26.156c-1.676 3.301-5.715 4.68-9.016 3.008-3.348-1.629-4.68-5.668-3.055-9.016.148-.199.246-.395.348-.59 17.93-31.871 54.336-48.621 90.199-41.43 6.059-36.895-18.918-71.672-55.816-77.73-4.629-.785-9.262-1.035-13.941-.836C457.414 9.754 434.16-.691 409.922 0" fill="rgb(91.369629%,76.858521%,41.569519%)"/></g></svg>