<svg xmlns="http://www.w3.org/2000/svg" width="500" height="500" viewBox="0 0 375 375" xmlns:v="https://vecta.io/nano"><style><![CDATA[.B{fill:rgb(7.449341%,28.239441%,7.058716%)}]]></style><defs><clipPath id="A"><path d="M0 77h298v297.906H0zm0 0"/></clipPath><clipPath id="B"><path d="M42 1.406h332V265H42zm0 0"/></clipPath></defs><g clip-path="url(#A)" class="B"><path d="M288.18 143.383c-5.246 0-9.5 4.254-9.5 9.496v203.055H19.215V96.531h203.102c5.246 0 9.5-4.254 9.5-9.5s-4.254-9.5-9.5-9.5H9.715c-5.25 0-9.504 4.254-9.504 9.5V365.43c0 5.246 4.254 9.5 9.504 9.5H288.18c5.246 0 9.5-4.254 9.5-9.5l.004-212.551a9.5 9.5 0 0 0-9.504-9.496zm0 0"/></g><g clip-path="url(#B)" class="B"><path d="M371.066 33.063L342.164 4.164a9.51 9.51 0 0 0-6.719-2.781c-2.52 0-4.937 1-6.719 2.781l-21.375 21.371-111.543 111.512H52.352c-5.246 0-9.5 4.254-9.5 9.5s4.254 9.5 9.5 9.5h124.457l-29.273 29.262c-.062.066-.121.137-.184.203-.133.145-.27.285-.395.438-.082.094-.152.195-.227.293-.113.148-.227.297-.332.449-.082.121-.156.246-.23.371-.086.141-.176.277-.254.422-.086.156-.16.316-.234.477-.051.109-.109.207-.156.316l-1.254 2.914H52.352c-5.246 0-9.5 4.254-9.5 9.5s4.254 9.496 9.5 9.496h83.758l-12.359 28.758c-.887 2.063-.988 4.32-.391 6.387H52.355c-5.246 0-9.5 4.254-9.5 9.5s4.254 9.5 9.5 9.5h193.184c5.246 0 9.504-4.254 9.504-9.5s-4.258-9.5-9.504-9.5h-95.137l36.32-15.598c.016-.008.027-.012.043-.02l.145-.062c.063-.027.125-.062.188-.094a8.77 8.77 0 0 0 .609-.297c.109-.059.211-.125.32-.187.156-.094.313-.187.465-.289.141-.098.273-.203.41-.305.109-.082.219-.16.328-.25.16-.137.309-.277.461-.418.063-.059.129-.109.188-.172l17.457-17.449h38.207c5.246 0 9.504-4.254 9.504-9.5s-4.258-9.5-9.504-9.5h-19.207l123.355-123.32 21.375-21.375a9.5 9.5 0 0 0 0-13.434zm-35.625-8.746l15.469 15.465-7.937 7.938-7.734-7.73-7.738-7.734zM206.457 153.27c.004-.004.012-.008.016-.016L314.066 45.688l15.469 15.465-132.812 132.781c-.027.027-.059.055-.086.082l-13.477 13.477-15.469-15.465zm-49.008 55.383l9.078 9.078-15.914 6.836zm0 0"/></g><path d="M245.539 318.473c5.246 0 9.5-4.254 9.5-9.5s-4.254-9.5-9.5-9.5H52.355c-5.246 0-9.5 4.254-9.5 9.5s4.254 9.5 9.5 9.5zm0 0" class="B"/></svg>