<svg xmlns="http://www.w3.org/2000/svg" width="500" height="500" viewBox="0 0 375 375" xmlns:v="https://vecta.io/nano"><style><![CDATA[.B{fill:rgb(7.449341%,28.239441%,7.058716%)}]]></style><defs><clipPath id="A"><path d="M93.848 294H176v76.453H93.848zm0 0"/></clipPath><clipPath id="B"><path d="M187.5 263H270v107.453h-82.5zm0 0"/></clipPath><clipPath id="C"><path d="M.195 315H82v55.453H.195zm0 0"/></clipPath><clipPath id="D"><path d="M281.152 219H363v151.453h-81.848zm0 0"/></clipPath><clipPath id="E"><path d="M258 4.453h53V77h-53zm0 0"/></clipPath><clipPath id="F"><path d="M267 4.453h108V199H267zm0 0"/></clipPath></defs><g clip-path="url(#A)" class="B"><path d="M93.848 370.785h81.578v-75.937H93.848v75.938"/></g><g clip-path="url(#B)" class="B"><path d="M187.5 370.785h81.578V263.094H187.5v107.691"/></g><g clip-path="url(#C)" class="B"><path d="M.195 315.793h81.582v54.992H.195v-54.992"/></g><g clip-path="url(#D)" class="B"><path d="M281.152 370.785h81.578V219.238h-81.578v151.547"/></g><g clip-path="url(#E)" class="B"><path d="M287.203 76.238l23.215-52.566-7.383-15.762c-.965-2.094-3.125-3.492-5.422-3.492h-32.758c-1.996 0-3.926 1.031-5.02 2.762-1.133 1.695-1.332 3.891-.469 5.684l27.836 63.375"/></g><g clip-path="url(#F)" class="B"><path d="M333.066 97.551h.133.035c1.992 0 4.387-1.266 5.52-3.859l35.52-80.828c.828-1.793.664-3.988-.469-5.684a5.98 5.98 0 0 0-5.02-2.762h-32.758c-2.297 0-4.457 1.398-5.457 3.492l-35.449 80.461-.035.066c-.066 0 0 .066 0 .066-.066.066-.066.102-.133.168l-.066.066v.066c0 .066 0 .102-.066.168-1.496 3.855 1.031 8.277 5.254 8.477.168 0 .301.102.5.102h10.211v11.535l-8.547 26.234h-28.57c-2.594 0-4.953 1.66-5.719 4.156-.797 2.527.066 5.254 2.16 6.781l23.148 16.758-8.812 27.195c-.867 2.496.066 5.188 2.16 6.719 2.262 1.629 4.957 1.563 7.117 0l23.113-16.727 23.082 16.727c2.16 1.563 4.988 1.563 7.117 0 2.094-1.531 3.023-4.223 2.16-6.719l-8.812-27.195 23.148-16.758c2.094-1.527 2.957-4.254 2.16-6.781-.766-2.496-3.125-4.156-5.719-4.156h-28.602l-8.516-26.234V97.551h10.211"/></g><path d="M120.555 237.957l13.898 42.359c2.129 6.449 9.016 9.973 15.5 7.914 6.52-2.062 10.145-9.078 7.98-15.629l-14.398-44.055c-1.199-4.223-2.062-3.523-29.035-36.406l18.293-62.109 37.777 14.531c1.531.898 44.934-18.953 44.934-18.953 4.688-1.527 9.977-3.457 10.84-8.543 1.098-6.418-3.691-12.004-10.145-12.004l-46.723 15.129c-9.848-5.687-33.625-14.695-42.172-22.176-2.027-1.828-4.457-3.324-7.184-4.391-12.703-4.953-27.039 1.398-32.027 14l-23.246 78.93c-3.258 8.414.133 11.008-5.32 30.125l-22.781 78.332c-1.629 5.953 1.797 12.102 7.715 13.766 1.031.332 2.063.465 3.027.465 14.801 0 10.609-16.855 31.063-77.734 2.063-7.215 8.68-12.203 16.16-12.168 11.012.031 13.938 8.043 25.844 18.617m3.023-210.996c14.234 0 25.809 11.539 25.809 25.801 0 14.23-11.574 25.801-25.809 25.801-14.266 0-25.805-11.57-25.805-25.801a25.79 25.79 0 0 1 25.805-25.801" class="B"/></svg>